<svg xmlns="http://www.w3.org/2000/svg" xmlns:xlink="http://www.w3.org/1999/xlink" viewBox="0 0 238 60"><defs><style>.a{fill:none;}.b{fill:#337496;}.c{clip-path:url(#a);}</style><clipPath id="a"><rect class="a" width="54.097" height="60"/></clipPath></defs><g transform="translate(-404.764 -360.471)"><path class="b" d="M424.8,421.378h-4.5v6.984a7.7,7.7,0,0,1-2.87.553,7.768,7.768,0,1,1,0-15.537,7.68,7.68,0,0,1,2.237.328,8.186,8.186,0,0,1,1.384.526l.412.215-.005-5.508-.2-.057a12.693,12.693,0,0,0-3.689-.541,12.8,12.8,0,1,0,7.192,23.4c.011-.011.028-.017.039-.028s.023-.017.034-.023l-.034-.05Z" transform="translate(0 -22.718)"/><path class="b" d="M450.828,425.7a3.98,3.98,0,0,1-7.96-.023V409.333H438.4v16.458h0a8.253,8.253,0,0,0,16.506,0h0V409.333h-4.082Z" transform="translate(-11.044 -23.044)"/><path class="b" d="M772.109,412.828v-3.5h-11.7v24.473h11.7v-3.545h-7.624v-8.62h7.042v-4.079h-7.042v-4.734Z" transform="translate(-129.345 -23.044)"/><path class="b" d="M772.109,412.828v-3.5h-11.7v24.473h11.7v-3.545h-7.624v-8.62h7.042v-4.079h-7.042v-4.734Z" transform="translate(-129.345 -23.044)"/><g class="c" transform="translate(474.31 360.471)"><path class="b" d="M554.481,463.753l-1.444-.139c-1.052-.1-2.1-.182-3.15-.254q1.241.1,2.483.22C553.072,463.643,553.778,463.7,554.481,463.753Z" transform="translate(-526.515 -405.303)"/><path class="b" d="M552.23,449.511l.882.04h.012l.873.052c1.951.116,3.932.3,5.905.552a67.054,67.054,0,0,0-8.569-.664C551.629,449.494,551.925,449.5,552.23,449.511Z" transform="translate(-527.142 -399.29)"/><path class="b" d="M541.4,449.69c.436-.032.845-.066,1.249-.087-1.471.078-2.732.211-3.788.361Q540.139,449.787,541.4,449.69Z" transform="translate(-521.735 -399.339)"/><path class="b" d="M539.663,410.746c.188-.011.369-.017.556-.026.386-.014.77-.026,1.148-.032l.484-.006c.03,0,.068,0,.1,0l.065,0c.054,0,.109,0,.166,0h.41c.1,0,.2.006.308,0h.036a67.334,67.334,0,0,1,8.569.662c.364.043.731.089,1.094.138,1.092.158,2.23.339,3.479.563.94.17,2.175.408,3.414.681l.422.089c.711.153,1.405.3,2.091.437a13.072,13.072,0,0,0,2.475-5.466c1.679-7,.323-22.079-23.313-47.316.052.417,5.73,32.176-9.2,51.339,1.3-.29,2.607-.526,3.9-.7C536.931,410.956,538.192,410.824,539.663,410.746Z" transform="translate(-518.748 -360.471)"/><path class="b" d="M551.974,464.132l-.244.006h-.079c-1.053,0-2.116-.026-3.14-.055l-.034,0-.007,0h0l-.149,0c-1.012-.043-2.055-.084-3.086-.144-.957-.061-2.092-.133-3.225-.228l-1.6-.125h0l0-.006-.165-.011c-.7-.052-1.409-.11-2.111-.173q-1.24-.117-2.483-.22c-2.6-.179-5.179-.257-7.706-.242-.573,0-1.148.008-1.721.02-2.182.049-4.305.171-6.3.361-.967.089-1.94.2-2.891.326.118-.008.24-.015.358-.017.459-.023.922-.038,1.377-.046.92-.008,1.837-.012,2.763.009,1.83.032,3.666.121,5.5.234,3.672.217,7.315.552,10.98.927a83.127,83.127,0,0,0,11.12.3c.926-.037,1.854-.1,2.776-.173s1.85-.19,2.767-.317c.918-.145,1.835-.306,2.739-.52.451-.107.894-.228,1.337-.364-.142.026-.282.046-.428.07A48,48,0,0,1,551.974,464.132Z" transform="translate(-512.267 -405.116)"/><path class="b" d="M557.561,454.289c-.569-.049-1.128-.118-1.682-.191-2.235-.283-4.413-.76-6.658-1.242-1.122-.243-2.26-.465-3.4-.685-1.138-.2-2.292-.39-3.444-.552-2.3-.321-4.623-.546-6.94-.69l-.872-.049-.886-.044c-.589-.017-1.185-.02-1.78-.02a.421.421,0,0,1-.06,0c-.572,0-1.145.018-1.708.035-.6.032-1.19.066-1.779.121a43.95,43.95,0,0,0-7,1.118,40.781,40.781,0,0,0-6.676,2.256,31.87,31.87,0,0,0-3.142,1.574,20.549,20.549,0,0,0-2.911,1.938c.315-.118.628-.231.944-.344v-.006A28.323,28.323,0,0,1,512.7,456.4c1-.3,2.049-.557,3.195-.805a57.451,57.451,0,0,1,6.487-1c.485-.046.982-.09,1.476-.127,1.548-.15,3.107-.234,4.667-.28.314-.006.624-.011.937-.011.244,0,.485,0,.73,0,.556,0,1.11,0,1.667.02s1.113.046,1.667.072l.835.047.845.058c2.269.168,4.529.344,6.786.557s4.5.456,6.8.684c.826.087,1.664.159,2.508.214,1,.046,2.023.072,3.029.066l.151-.006c.387,0,.76-.012,1.13-.023.069-.008.144-.006.214-.011.59-.044,1.179-.1,1.763-.162.579-.081,1.161-.161,1.735-.268a32.489,32.489,0,0,0,3.4-.794c-1.16-.072-2.313-.13-3.454-.211C558.693,454.387,558.127,454.341,557.561,454.289Z" transform="translate(-508.627 -399.865)"/><path class="b" d="M555.434,459.9l-.148,0c-2.058.011-4.122-.107-6.19-.249-4.231-.309-8.482-.713-12.73-1.077-2.288-.2-4.581-.3-6.88-.286-2.028.009-4.06.112-6.077.306a58.264,58.264,0,0,0-6.4.985c-1.054.228-2.1.488-3.135.791a25.234,25.234,0,0,0-3.05,1.075c1.056-.225,2.112-.387,3.164-.532s2.116-.262,3.174-.364c2.11-.2,4.23-.315,6.34-.364.586-.012,1.162-.02,1.742-.023a107.9,107.9,0,0,1,10.935.508l1.595.144,1.609.133c1.067.089,2.137.156,3.212.222s2.142.107,3.216.147c1.047.029,2.1.058,3.153.052a.711.711,0,0,1,.081,0h.244a47,47,0,0,0,6.234-.384,21.9,21.9,0,0,0,6.242-1.736c-1.05.214-2.108.378-3.163.485S556.49,459.883,555.434,459.9Z" transform="translate(-509.577 -403.1)"/></g><path class="b" d="M747.052,421.378h-4.5v6.984a7.766,7.766,0,1,1-.634-14.656,8.206,8.206,0,0,1,1.386.526l.412.215-.005-5.508-.2-.057a12.686,12.686,0,0,0-3.689-.541,12.8,12.8,0,1,0,7.192,23.4c.011-.011.028-.017.04-.028s.021-.017.034-.023l-.034-.05Z" transform="translate(-118.38 -22.718)"/><path class="b" d="M706.855,409.333a8.253,8.253,0,0,0-8.253,8.209h0V434h4.082V423.9h7.972V434h4.456V417.542h0A8.253,8.253,0,0,0,706.855,409.333Zm3.8,11.07h-7.972v-2.774a3.981,3.981,0,0,1,7.961.057h.011Z" transform="translate(-109.051 -23.044)"/><path class="b" d="M471.471,409.333h-4.079v24.473h11.12v-4.079h-7.041Z" transform="translate(-20.664 -23.044)"/><path class="b" d="M614.606,409.333l-5.562,12.909-4.927-12.909h-5.245l10.03,24.473,10.948-24.473Z" transform="translate(-76.059 -23.044)"/><path class="b" d="M488.172,409.333h-.825v24.473h11.12v-3.545h-7.041v-8.62h7.041v-4.079h-7.041v-4.734h7.041v-3.5H488.172Z" transform="translate(-27.248 -23.044)"/><path class="b" d="M512.769,409.333h-6.116v3.5h6.116v20.978h4.079V412.828h6.1v-3.5H512.769Z" transform="translate(-33.622 -23.044)"/><path class="b" d="M640.5,408.516a12.869,12.869,0,1,0,12.869,12.869A12.869,12.869,0,0,0,640.5,408.516Zm.048,21.125a8.256,8.256,0,1,1,8.256-8.256A8.256,8.256,0,0,1,640.553,429.641Z" transform="translate(-85.56 -22.775)"/><path class="b" d="M676.121,434.507c.118,0,.236.005.355.005,4.517,0,8.187-2.752,8.339-7.2h.014V409.3h-4.143v8.191c-.15,2.294-1.716,3.243-4.178,3.243-2.359,0-3.828-1-3.986-3.207V409.3h-4.4v8.228h.02a8.332,8.332,0,0,0,12.542,6.8v2.983h0c-.116,2.354-1.689,3.328-4.182,3.328q-.188,0-.369-.006Z" transform="translate(-98.906 -23.034)"/><path class="b" d="M747.052,421.378h-4.5v6.984a7.766,7.766,0,1,1-.634-14.656,8.206,8.206,0,0,1,1.386.526l.412.215-.005-5.508-.2-.057a12.686,12.686,0,0,0-3.689-.541,12.8,12.8,0,1,0,7.192,23.4c.011-.011.028-.017.04-.028s.021-.017.034-.023l-.034-.05Z" transform="translate(-118.38 -22.718)"/><path class="b" d="M706.855,409.333a8.253,8.253,0,0,0-8.253,8.209h0V434h4.082V423.9h7.972V434h4.456V417.542h0A8.253,8.253,0,0,0,706.855,409.333Zm3.8,11.07h-7.972v-2.774a3.981,3.981,0,0,1,7.961.057h.011Z" transform="translate(-109.051 -23.044)"/><path class="b" d="M614.606,409.333l-5.562,12.909-4.927-12.909h-5.245l10.03,24.473,10.948-24.473Z" transform="translate(-76.059 -23.044)"/><path class="b" d="M640.5,408.516a12.869,12.869,0,1,0,12.869,12.869A12.869,12.869,0,0,0,640.5,408.516Zm.048,21.125a8.256,8.256,0,1,1,8.256-8.256A8.256,8.256,0,0,1,640.553,429.641Z" transform="translate(-85.56 -22.775)"/><path class="b" d="M676.121,434.507c.118,0,.236.005.355.005,4.517,0,8.187-2.752,8.339-7.2h.014V409.3h-4.143v8.191c-.15,2.294-1.716,3.243-4.178,3.243-2.359,0-3.828-1-3.986-3.207V409.3h-4.4v8.228h.02a8.332,8.332,0,0,0,12.542,6.8v2.983h0c-.116,2.354-1.689,3.328-4.182,3.328q-.188,0-.369-.006Z" transform="translate(-98.906 -23.034)"/></g></svg>